<svg width="47" height="52" viewBox="0 0 47 52" fill="none" xmlns="http://www.w3.org/2000/svg">
<path d="M12.558 12.6167C8.20968 14.4295 4.62055 17.703 2.40201 21.8796C0.183471 26.0562 -0.527252 30.8775 0.390917 35.5221C1.30909 40.1668 3.79935 44.3475 7.43748 47.3521C11.0756 50.3567 15.6366 51.9992 20.3434 52V39.7134C18.2011 39.6886 16.1549 38.815 14.6486 37.2821C13.1424 35.7492 12.2977 33.6805 12.2977 31.525C12.2977 29.3694 13.1424 27.3007 14.6486 25.7678C16.1549 24.2349 18.2011 23.3613 20.3434 23.3365V11.0542C17.6714 11.0555 15.0259 11.5865 12.558 12.6167Z" fill="#1DA7B4"/>
<path d="M45.2452 12.6371C43.7052 8.89649 41.0973 5.69934 37.7513 3.44995C34.4053 1.20056 30.4715 -2.7299e-05 26.4473 4.6555e-10V12.2823C27.5239 12.2699 28.5923 12.4725 29.5905 12.8785C30.5888 13.2844 31.4971 13.8856 32.2628 14.6472C33.0285 15.4088 33.6364 16.3156 34.0512 17.3153C34.4661 18.3149 34.6798 19.3875 34.6798 20.4707C34.6798 21.554 34.4661 22.6266 34.0512 23.6262C33.6364 24.6259 33.0285 25.5327 32.2628 26.2943C31.4971 27.0559 30.5888 27.6571 29.5905 28.063C28.5923 28.469 27.5239 28.6716 26.4473 28.6592V40.9415C29.7933 40.9417 33.0877 40.1116 36.0387 38.5248C38.9897 36.9379 41.5061 34.6433 43.3651 31.8442C45.2241 29.0451 46.3682 25.8279 46.6962 22.4776C47.0241 19.1273 46.5258 15.7473 45.2452 12.6371Z" fill="#F8A90D"/>
<path d="M20.3433 11.0541L26.4471 0V12.2823L20.3433 23.3365V11.0541Z" fill="#E6E6E6"/>
<path d="M20.3433 39.7133L26.4471 28.6592V40.9415L20.3433 51.9956V39.7133Z" fill="#E6E6E6"/>
</svg>
