<svg width="141" height="38" viewBox="0 0 141 38" fill="none" xmlns="http://www.w3.org/2000/svg">
<path fill-rule="evenodd" clip-rule="evenodd" d="M22.1523 0.25V16.0363L37.9637 0.25H22.1523Z" fill="#3BA6B3"/>
<path fill-rule="evenodd" clip-rule="evenodd" d="M16.2147 21.9639V37.7501L0.40332 21.9639H16.2147Z" fill="#E53712"/>
<path d="M135.334 18.0013H132.616V9.57527H129.447V7.46045H138.503V9.57527H135.334V18.0013ZM117.772 10.4745C117.772 9.87501 117.471 9.57527 116.871 9.57527H113.852V12.8891H116.871C117.471 12.8891 117.772 12.5893 117.772 11.9898V10.4745ZM111.133 7.46045H117.471C118.522 7.46045 119.289 7.69358 119.773 8.17649C120.257 8.65941 120.49 9.4254 120.49 10.4745V11.9732C120.49 13.0223 120.257 13.7883 119.773 14.2712C119.289 14.7541 118.522 14.9872 117.471 14.9872H113.852V18.0013H111.133V7.46045ZM95.3053 14.1713H97.7238L96.5229 10.6244L95.3053 14.1713ZM93.9377 18.0013H91.0022L95.0051 7.46045H98.024L102.027 18.0013H99.0914L98.4076 16.1196H94.6382L93.9377 18.0013ZM79.1604 12.1397L77.0422 15.9031H74.924L72.8058 12.1397V18.0179H70.0871V7.4771H72.9559L75.9747 13.0389L78.9936 7.4771H81.8623V18.0179H79.1437V12.1397H79.1604ZM54.9596 18.0512C53.9755 18.0512 53.2416 17.8181 52.7913 17.3685C52.3243 16.9189 52.0908 16.2028 52.0908 15.2204V10.4412C52.0908 9.3921 52.3243 8.64275 52.808 8.15984C53.2917 7.69358 54.0589 7.46045 55.1097 7.46045H60.5469V9.57527H55.7268C55.1263 9.57527 54.8261 9.87501 54.8261 10.4745V15.2703C54.8261 15.5034 54.8928 15.6866 55.0263 15.8198C55.1597 15.953 55.3432 16.0197 55.5767 16.0197C55.7601 16.0197 55.9936 16.0197 56.2438 16.0197C56.494 16.0197 56.7609 16.0197 57.0277 16.0197C57.2946 16.0197 57.5781 16.0197 57.845 16.0197C58.1285 16.0197 58.3954 15.9697 58.6456 15.8864C59.2627 15.8864 59.8965 15.8864 60.5469 15.8864V17.8514C59.8798 17.9846 59.2126 18.0512 58.5455 18.0512C57.9784 18.0512 57.3613 18.0512 56.7275 18.0512C56.077 18.0512 55.4933 18.0512 54.9596 18.0512Z" fill="#3BA6B3"/>
<path fill-rule="evenodd" clip-rule="evenodd" d="M16.2147 16.0363V0.25L0.40332 16.0363H16.2147Z" fill="#F7A803"/>
<path fill-rule="evenodd" clip-rule="evenodd" d="M22.1523 37.7501V21.9639L37.9637 37.7501H22.1523Z" fill="#F7A803"/>
<path d="M113.252 28.8417C113.252 28.2422 112.951 27.9425 112.351 27.9425H109.482V30.6568H112.351C112.951 30.6568 113.252 30.3571 113.252 29.7576V28.8417ZM119.89 32.7716H117.171V22.2308H119.89V32.7716ZM109.482 25.8443H112.951C114.002 25.8443 114.769 26.0775 115.253 26.5604C115.737 27.0433 115.97 27.8093 115.97 28.8584V29.7576C115.97 30.8067 115.737 31.5727 115.253 32.0556C114.769 32.5385 114.002 32.7716 112.951 32.7716H106.764V22.2308H109.482V25.8443ZM91.0022 30.5736C90.9522 31.2896 90.7187 31.8724 90.3017 32.2887C89.8848 32.705 89.3344 32.9215 88.6506 32.9215C88.4671 32.9215 88.2669 32.9215 88.0835 32.9049C87.9 32.8882 87.7332 32.8716 87.5831 32.8549C87.3996 32.8382 87.2329 32.8049 87.0661 32.7883V30.7567H87.7499C87.9333 30.7567 88.1002 30.6901 88.2336 30.5569C88.3503 30.4237 88.4337 30.2738 88.4337 30.074L88.884 22.2475H97.2567V32.7883H94.5381V24.3623H91.3692L91.0022 30.5736ZM72.689 28.925H75.1074L73.8899 25.3947L72.689 28.925ZM71.3214 32.7716H68.3859L72.3888 22.2308H75.4077L79.4105 32.7716H76.4751L75.7913 30.8899H72.0219L71.3214 32.7716ZM138.153 26.8934L136.035 30.6568H133.933L131.815 26.8934V32.7716H129.096V22.2308H131.965L134.984 27.8093L138.003 22.2308H140.872V32.7716H138.153V26.8934ZM54.9596 32.8049C53.9755 32.8049 53.2416 32.5718 52.7913 32.1222C52.3243 31.6726 52.0908 30.9399 52.0908 29.9741V25.1949C52.0908 24.1458 52.3243 23.3965 52.808 22.9136C53.2917 22.4473 54.0589 22.1975 55.1097 22.1975H60.5469V24.3123H55.7268C55.1263 24.3123 54.8261 24.6121 54.8261 25.2116V30.0074C54.8261 30.2405 54.8928 30.4237 55.0263 30.5569C55.1597 30.6901 55.3432 30.7567 55.5767 30.7567C55.7601 30.7567 55.9936 30.7567 56.2438 30.7567C56.494 30.7567 56.7609 30.7567 57.0277 30.7567C57.2946 30.7567 57.5781 30.7567 57.845 30.7567C58.1285 30.7567 58.3954 30.7068 58.6456 30.6235C59.2627 30.6235 59.8965 30.6235 60.5469 30.6235V32.5885C59.8798 32.7217 59.2126 32.7883 58.5455 32.7883C57.9784 32.7883 57.3613 32.7883 56.7275 32.7883C56.077 32.8049 55.4933 32.8049 54.9596 32.8049Z" fill="#E53712"/>
</svg>
